<svg width="27" height="33" viewBox="0 0 27 33" fill="none" xmlns="http://www.w3.org/2000/svg">
<path d="M10.9664 0.88602C7.27162 0.758621 3.57728 1.90521 0.519531 4.32579L2.55789 5.47237C4.97863 3.6888 8.03595 2.9244 10.9664 3.0518V0.88602Z" fill="black"/>
<path d="M21.7956 5.72695C19.2476 3.05157 15.9352 1.39538 12.3682 1.01318V3.17897C15.4259 3.68857 18.1013 5.08995 20.267 7.25574L21.7956 5.72695Z" fill="black"/>
<path d="M26.3818 16.1739C26.2544 12.8615 24.9804 9.54911 22.8147 6.74634L21.2856 8.27513C23.0694 10.6957 24.0888 13.3711 24.2161 16.1739H26.3818Z" fill="black"/>
<path d="M22.8147 27.1299C24.9804 24.3271 26.2544 21.0148 26.3818 17.7024H24.2161C24.0888 20.5052 23.0694 23.1805 21.2856 25.6011L22.8147 27.1299Z" fill="black"/>
<path d="M12.3682 32.8629C15.8079 32.4807 19.2476 30.8245 21.7956 28.1492L20.267 26.6204C18.1013 28.9135 15.2982 30.3149 12.3682 30.6971V32.8629Z" fill="black"/>
<path d="M0.519775 29.5506C3.57753 31.9712 7.27186 33.1178 10.9666 32.9904V30.8246C8.03619 30.952 5.10619 30.1876 2.55813 28.4041L0.519775 29.5506Z" fill="black"/>
<path d="M10.385 8.08374C11.7467 8.08374 13.0034 8.31563 14.1553 8.77945C15.3072 9.22829 16.2947 9.85667 17.1177 10.6646C17.9554 11.4725 18.6062 12.4226 19.0702 13.5148C19.5341 14.592 19.7659 15.759 19.7659 17.0157C19.7659 18.2725 19.5341 19.447 19.0702 20.5392C18.6062 21.6164 17.9554 22.559 17.1177 23.3669C16.2947 24.1748 15.3072 24.8107 14.1553 25.2745C13.0034 25.7233 11.7467 25.9477 10.385 25.9477C9.0087 25.9477 7.74417 25.7233 6.59228 25.2745C5.45507 24.8107 4.47538 24.1748 3.65235 23.3669C2.82933 22.559 2.18627 21.6164 1.72232 20.5392C1.25837 19.447 1.02661 18.2725 1.02661 17.0157C1.02661 15.759 1.25837 14.592 1.72232 13.5148C2.18627 12.4226 2.82933 11.4725 3.65235 10.6646C4.47538 9.85667 5.45507 9.22829 6.59228 8.77945C7.74417 8.31563 9.0087 8.08374 10.385 8.08374ZM10.385 12.3478C9.74153 12.3478 9.12825 12.4674 8.54475 12.7068C7.97636 12.9313 7.47486 13.2529 7.04113 13.6719C6.60739 14.0908 6.26299 14.5845 6.00878 15.153C5.75458 15.7216 5.62727 16.3425 5.62727 17.0157C5.62727 17.689 5.75458 18.3099 6.00878 18.8784C6.26299 19.447 6.60739 19.9407 7.04113 20.3596C7.47486 20.7786 7.97636 21.1077 8.54475 21.3471C9.12825 21.5715 9.74153 21.6837 10.385 21.6837C11.0285 21.6837 11.6344 21.5715 12.2028 21.3471C12.7863 21.1077 13.2952 20.7786 13.7289 20.3596C14.1778 19.9407 14.5295 19.447 14.7837 18.8784C15.0379 18.3099 15.1652 17.689 15.1652 17.0157C15.1652 16.3425 15.0379 15.7216 14.7837 15.153C14.5295 14.5845 14.1778 14.0908 13.7289 13.6719C13.2952 13.2529 12.7863 12.9313 12.2028 12.7068C11.6344 12.4674 11.0285 12.3478 10.385 12.3478Z" fill="black"/>
</svg>
