<svg width="84" height="65" viewBox="0 0 84 65" fill="none" xmlns="http://www.w3.org/2000/svg">
<path d="M70.8089 5.63435C65.4361 3.12058 59.6914 1.29367 53.6854 0.253418C52.9477 1.58699 52.086 3.38067 51.4919 4.80754C45.1073 3.84738 38.7815 3.84738 32.5143 4.80754C31.9203 3.38067 31.039 1.58699 30.2948 0.253418C24.2823 1.29367 18.5309 3.12729 13.1582 5.64766C2.32131 22.0236 -0.616389 37.9927 0.852462 53.7351C8.04004 59.1027 15.0057 62.3633 21.8537 64.4969C23.5446 62.1698 25.0526 59.6961 26.3517 57.089C23.8775 56.1489 21.5077 54.9887 19.2686 53.6419C19.8627 53.2018 20.4437 52.7417 21.0051 52.2682C34.6621 58.656 49.5008 58.656 62.9946 52.2682C63.5626 52.7417 64.1435 53.2018 64.7311 53.6419C62.4854 54.9953 60.1092 56.1555 57.635 57.0958C58.9341 59.6961 60.4356 62.1765 62.1329 64.5035C68.9876 62.3699 75.9596 59.1094 83.1472 53.7351C84.8707 35.4857 80.203 19.6632 70.8089 5.63435ZM28.2122 44.0537C24.1125 44.0537 20.7505 40.2264 20.7505 35.5657C20.7505 30.9049 24.0407 27.071 28.2122 27.071C32.3838 27.071 35.7458 30.8982 35.674 35.5657C35.6805 40.2264 32.3838 44.0537 28.2122 44.0537ZM55.7875 44.0537C51.6878 44.0537 48.3257 40.2264 48.3257 35.5657C48.3257 30.9049 51.6159 27.071 55.7875 27.071C59.959 27.071 63.3211 30.8982 63.2493 35.5657C63.2493 40.2264 59.959 44.0537 55.7875 44.0537Z" fill="#F5F5F4"/>
</svg>
