<svg width="68" height="68" viewBox="0 0 68 68" fill="none" xmlns="http://www.w3.org/2000/svg">
<path fill-rule="evenodd" clip-rule="evenodd" d="M34 0C15.215 0 0 15.5998 0 34.86C0 50.2855 9.7325 63.3145 23.2475 67.9334C24.9475 68.2384 25.585 67.1926 25.585 66.2776C25.585 65.4496 25.5425 62.7044 25.5425 59.7849C17 61.3972 14.79 57.6497 14.11 55.6888C13.7275 54.6866 12.07 51.5928 10.625 50.7649C9.435 50.1112 7.735 48.499 10.5825 48.4554C13.26 48.4118 15.1725 50.9827 15.81 52.0285C18.87 57.3011 23.7575 55.8196 25.7125 54.9045C26.01 52.6386 26.9025 51.1135 27.88 50.242C20.315 49.3705 12.41 46.3638 12.41 33.0298C12.41 29.2388 13.7275 26.1014 15.895 23.6612C15.555 22.7897 14.365 19.2166 16.235 14.4233C16.235 14.4233 19.0825 13.5082 25.585 17.9965C28.305 17.2121 31.195 16.8199 34.085 16.8199C36.975 16.8199 39.865 17.2121 42.585 17.9965C49.0875 13.4647 51.935 14.4233 51.935 14.4233C53.805 19.2166 52.615 22.7897 52.275 23.6612C54.4425 26.1014 55.76 29.1952 55.76 33.0298C55.76 46.4074 47.8125 49.3705 40.2475 50.242C41.48 51.3313 42.5425 53.4229 42.5425 56.6911C42.5425 61.3536 42.5 65.101 42.5 66.2776C42.5 67.1926 43.1375 68.282 44.8375 67.9334C58.2675 63.3145 68 50.242 68 34.86C68 15.5998 52.785 0 34 0Z" fill="#F5F5F4"/>
</svg>
