<svg width="34" height="33" viewBox="0 0 34 33" fill="none" xmlns="http://www.w3.org/2000/svg">
<path d="M24.7407 30.9944C24.6212 31.0576 24.6313 31.0777 24.7457 31.0195C24.7828 31.0044 24.814 30.9833 24.8411 30.9582C24.8411 30.9371 24.8411 30.9371 24.7407 30.9944ZM24.9816 30.8639C24.9244 30.911 24.9244 30.911 24.9927 30.8799C25.0288 30.8588 25.0609 30.8388 25.0609 30.8327C25.0609 30.8056 25.0449 30.8117 24.9816 30.8639ZM25.1382 30.7695C25.081 30.8167 25.081 30.8167 25.1493 30.7856C25.1864 30.7645 25.2175 30.7424 25.2175 30.7374C25.2175 30.7123 25.2015 30.7173 25.1382 30.7695ZM25.2968 30.6761C25.2396 30.7233 25.2396 30.7233 25.3059 30.6912C25.343 30.6711 25.3741 30.65 25.3741 30.644C25.3741 30.6189 25.3581 30.6239 25.2968 30.6761ZM25.5107 30.5346C25.4012 30.6079 25.3631 30.6551 25.4635 30.6029C25.5307 30.5617 25.6452 30.4713 25.6251 30.4713C25.5819 30.4874 25.5458 30.5145 25.5097 30.5346H25.5107ZM15.9105 0.883843C15.8372 0.888863 15.6174 0.908941 15.4246 0.925003C10.859 1.3386 6.58743 3.79611 3.87995 7.58176C2.38316 9.65679 1.4114 12.0671 1.04498 14.5979C0.915476 15.4813 0.899414 15.7423 0.899414 16.94C0.899414 18.1366 0.915476 18.3936 1.04498 19.277C1.91936 25.3114 6.21197 30.377 12.0305 32.2542C13.0775 32.5885 14.1748 32.8194 15.4246 32.961C15.9105 33.0132 18.0116 33.0132 18.4975 32.961C20.6579 32.72 22.4819 32.187 24.2869 31.2664C24.564 31.1259 24.6162 31.0887 24.5791 31.0576C23.6956 29.8921 22.8283 28.7256 21.9599 27.549L19.393 24.0826L16.1775 19.3192C15.1054 17.725 14.0292 16.1349 12.936 14.5568C12.925 14.5568 12.9109 16.674 12.9049 19.2559C12.8938 23.7784 12.8938 23.9622 12.8366 24.0666C12.7794 24.192 12.685 24.2964 12.5595 24.3547C12.4602 24.4019 12.3708 24.4119 11.896 24.4119H11.3529L11.2113 24.3236C11.123 24.2663 11.0497 24.187 11.0025 24.0937L10.9342 23.9521L10.9393 17.6568L10.9503 11.3614L11.0497 11.2359C11.1129 11.1586 11.1912 11.0954 11.2796 11.0482C11.4111 10.9849 11.4633 10.9749 12.0064 10.9749C12.6439 10.9749 12.7493 11 12.9169 11.1837C14.218 13.1232 15.515 15.0677 16.7909 17.0183C18.878 20.1825 21.727 24.5002 23.1274 26.6184L25.6743 30.4724L25.7998 30.389C27.0235 29.5729 28.1368 28.6011 29.0975 27.4928C31.1214 25.1759 32.4345 22.3258 32.8792 19.2841C33.0087 18.4006 33.0247 18.1386 33.0247 16.942C33.0247 15.7444 33.0087 15.4884 32.8792 14.6049C32.0048 8.57059 27.7122 3.50499 21.8937 1.62672C20.8055 1.28239 19.6861 1.04748 18.5527 0.92701C18.2486 0.89589 16.1725 0.858746 15.9115 0.885851L15.9105 0.883843ZM22.4829 10.5984C22.6345 10.6707 22.749 10.8072 22.8012 10.9639C22.8283 11.0482 22.8333 12.7939 22.8283 16.7262L22.8172 22.372L21.8244 20.8461L20.8255 19.3192V15.2203C20.8255 12.563 20.8366 11.0733 20.8506 11C20.8978 10.8323 21.0123 10.6918 21.1648 10.6035C21.2893 10.5402 21.3375 10.5352 21.8344 10.5352C22.2992 10.5352 22.3785 10.5402 22.4829 10.5984Z" fill="black"/>
</svg>
