<svg width="160" height="34" viewBox="0 0 160 34" fill="none" xmlns="http://www.w3.org/2000/svg">
<path d="M37.7676 15.6819H9.90959L0 27.5081H27.858L37.7676 15.6819Z" fill="#161A1E"/>
<path fill-rule="evenodd" clip-rule="evenodd" d="M78.1878 28.3433C75.2771 28.3433 74.2354 27.7104 74.2354 25.6029C74.2354 23.7056 75.2771 22.9457 78.4044 22.9457H81.5306V25.1387C81.5306 27.2462 80.489 28.3433 78.1878 28.3433ZM75.4949 32.9821C78.8815 32.9821 80.4014 31.8851 81.488 30.2834V32.7339H87.6101V17.4223C87.6101 12.3215 85.6558 9.74976 78.8815 9.74976C72.3237 9.74976 69.1026 11.9987 69.1026 17.085L75.1572 17.1608C75.1998 16.9495 75.2779 16.6785 75.3269 16.4983C75.7275 15.0246 76.4204 14.556 78.6649 14.556C81.0962 14.556 81.488 15.5676 81.488 17.2548V18.815H78.6211C70.8488 18.815 68.1997 21.1754 68.1997 25.9829C68.1997 30.7049 70.5884 32.9821 75.4949 32.9821Z" fill="#161A1E"/>
<path d="M59.0441 25.4988H59.0431C58.6026 24.7903 57.5743 24.4876 55.8515 24.1652C55.6544 24.132 55.454 24.0989 55.251 24.0654C51.3385 23.4201 46.4748 22.6178 46.5153 17.1657C46.5153 12.738 48.9479 9.95605 55.8515 9.95605C62.1478 9.95605 64.9026 12.6549 65.0191 17.1671L59.087 17.2916C58.8692 15.3111 58.0714 14.6355 55.7276 14.6355C53.8158 14.6355 52.595 15.1425 52.595 16.4913C52.595 18.3032 53.9409 18.5573 56.8943 19.0631C60.67 19.6814 65.1992 20.6203 65.406 25.4988L65.406 25.4998C65.4135 25.656 65.4168 25.8164 65.4156 25.9809C65.4156 30.4086 62.983 33.1906 56.0794 33.1906C49.783 33.1906 46.8325 30.4917 46.716 25.9796L52.746 25.8551C52.9638 27.8356 53.9084 28.5112 56.2522 28.5112C58.164 28.5112 59.3359 28.0042 59.3359 26.6554C59.3359 26.1725 59.2403 25.7946 59.0441 25.4988Z" fill="#161A1E"/>
<path d="M91.031 7.66712L97.2845 0.19043V32.7419H91.031V7.66712Z" fill="#161A1E"/>
<path fill-rule="evenodd" clip-rule="evenodd" d="M132.479 33.0957C139.644 33.0957 142.596 29.4269 142.596 24.4947V18.4228C142.596 13.4051 139.644 9.82178 132.479 9.82178C125.314 9.82178 122.448 13.4051 122.448 18.4228V24.4947C122.448 29.4281 125.27 33.0957 132.479 33.0957ZM132.479 28.2039C129.96 28.2039 128.701 26.8979 128.701 24.7892V18.2957C128.701 16.1467 129.96 14.8394 132.478 14.8394C134.997 14.8394 136.343 16.1455 136.343 18.2969V24.7892C136.343 26.8979 134.997 28.2039 132.479 28.2039Z" fill="#161A1E"/>
<path fill-rule="evenodd" clip-rule="evenodd" d="M106.46 19.0129V17.8742C106.46 15.8926 107.372 14.5426 110.107 14.5426C112.757 14.5426 113.625 15.6824 113.625 17.8742V19.0129H106.46ZM110.106 33.0957C115.938 33.0957 118.302 30.8883 119.223 28.2592C119.413 27.7158 119.542 27.1544 119.626 26.5907C119.648 26.2472 119.655 26.0264 119.66 25.9037L113.665 25.7565C113.665 25.7811 113.655 25.8547 113.655 25.8547C113.655 25.8547 113.581 26.3151 113.525 26.5417C113.2 27.8608 112.482 28.5423 110.107 28.5423C107.112 28.5423 106.459 27.0665 106.459 25.1264V23.2718H119.66V19.223C119.66 13.5737 117.446 9.82178 110.107 9.82178C102.855 9.82178 100.38 13.6165 100.38 18.4228V24.4947C100.38 29.174 102.898 33.0957 110.106 33.0957Z" fill="#161A1E"/>
<path d="M160 10.0181L154.842 16.1837L154.791 16.2361H151.44V32.7425H145.186V16.2277L150.381 10.0181H160Z" fill="#161A1E"/>
</svg>
