<svg width="87" height="34" viewBox="0 0 87 34" fill="none" xmlns="http://www.w3.org/2000/svg">
<path fill-rule="evenodd" clip-rule="evenodd" d="M86.3591 17.9721C86.3591 12.3048 83.3845 7.83301 77.6991 7.83301C71.9898 7.83301 68.5354 12.3048 68.5354 17.9278C68.5354 24.5913 72.6135 27.9562 78.4668 27.9562C81.3215 27.9562 83.4805 27.3585 85.1117 26.5173V22.0897C83.4805 22.8424 81.6093 23.3073 79.2344 23.3073C76.9075 23.3073 74.8445 22.5546 74.5806 19.9424H86.3111C86.3111 19.6546 86.3591 18.5034 86.3591 17.9721ZM74.5086 15.869C74.5086 13.3674 76.1639 12.327 77.6752 12.327C79.1385 12.327 80.6978 13.3674 80.6978 15.869H74.5086Z" fill="#181818"/>
<path fill-rule="evenodd" clip-rule="evenodd" d="M59.2763 7.83301C56.9254 7.83301 55.4141 8.85135 54.5745 9.55975L54.2627 8.18721H48.9851V33.9998L54.9823 32.8265L55.0063 26.5615C55.8699 27.1371 57.1413 27.9562 59.2523 27.9562C63.5464 27.9562 67.4565 24.7684 67.4565 17.7507C67.4326 11.3308 63.4744 7.83301 59.2763 7.83301ZM57.837 23.0859C56.4217 23.0859 55.582 22.621 55.0063 22.0454L54.9823 13.8323C55.606 13.1903 56.4696 12.7476 57.837 12.7476C60.02 12.7476 61.5313 15.0056 61.5313 17.9057C61.5313 20.8721 60.044 23.0859 57.837 23.0859Z" fill="#181818"/>
<path fill-rule="evenodd" clip-rule="evenodd" d="M40.7323 6.5251L46.7535 5.32966V0.835693L40.7323 2.00899V6.5251Z" fill="#181818"/>
<path d="M46.7535 8.20898H40.7323V27.5795H46.7535V8.20898Z" fill="#181818"/>
<path fill-rule="evenodd" clip-rule="evenodd" d="M34.2806 9.84505L33.8968 8.20686H28.7152V27.5774H34.7124V14.4497C36.1278 12.7451 38.5267 13.055 39.2703 13.2985V8.20686C38.5027 7.9412 35.696 7.45417 34.2806 9.84505Z" fill="#181818"/>
<path fill-rule="evenodd" clip-rule="evenodd" d="M22.285 3.40405L16.4317 4.55522L16.4077 22.2876C16.4077 25.5639 19.0705 27.977 22.6208 27.977C24.5879 27.977 26.0273 27.6449 26.8189 27.2464V22.7524C26.0512 23.0402 22.261 24.0586 22.261 20.7822V12.9233H26.8189V8.20795H22.261L22.285 3.40405Z" fill="#181818"/>
<path fill-rule="evenodd" clip-rule="evenodd" d="M6.06919 13.8323C6.06919 12.969 6.83683 12.6369 8.10824 12.6369C9.9314 12.6369 12.2343 13.1461 14.0575 14.0537V8.85134C12.0664 8.1208 10.0993 7.83301 8.10824 7.83301C3.2385 7.83301 0 10.1796 0 14.098C0 20.208 9.11577 19.2339 9.11577 21.8683C9.11577 22.8867 8.15622 23.2187 6.81284 23.2187C4.82176 23.2187 2.27894 22.4661 0.263877 21.4477V26.7165C2.49484 27.602 4.7498 27.9784 6.81284 27.9784C11.8025 27.9784 15.2329 25.6982 15.2329 21.7355C15.2089 15.1385 6.06919 16.3118 6.06919 13.8323Z" fill="#181818"/>
</svg>
