<svg width="33" height="31" viewBox="0 0 33 31" fill="none" xmlns="http://www.w3.org/2000/svg">
<rect x="0.336914" y="0.947266" width="32.1237" height="29.9821" rx="5" fill="#181818"/>
<path fill-rule="evenodd" clip-rule="evenodd" d="M14.7822 12.1176C14.7822 11.2813 15.5257 10.9596 16.7573 10.9596C18.5233 10.9596 20.754 11.4528 22.52 12.332V7.2928C20.5913 6.58516 18.6859 6.3064 16.7573 6.3064C12.0403 6.3064 8.90332 8.57941 8.90332 12.3749C8.90332 18.2933 17.7332 17.3498 17.7332 19.9016C17.7332 20.888 16.8038 21.2096 15.5025 21.2096C13.5739 21.2096 11.1108 20.4805 9.15892 19.4941L9.15892 24.5977C11.3199 25.4554 13.5042 25.82 15.5025 25.82C20.3357 25.82 23.6585 23.6113 23.6585 19.7729C23.6353 13.3827 14.7822 14.5193 14.7822 12.1176Z" fill="#FFFFF8"/>
</svg>
