<svg width="34" height="20" viewBox="0 0 34 20" fill="none" xmlns="http://www.w3.org/2000/svg">
<mask id="mask0_75_301" style="mask-type:luminance" maskUnits="userSpaceOnUse" x="0" y="0" width="34" height="20">
<path d="M0.980469 0.30127H33.1041V19.5755H0.980469V0.30127Z" fill="white"/>
</mask>
<g mask="url(#mask0_75_301)">
<path fill-rule="evenodd" clip-rule="evenodd" d="M17.0423 0.30127C12.7591 0.30127 10.0822 2.44285 9.01139 6.726C10.6176 4.58443 12.4915 3.78133 14.633 4.31673C15.8549 4.6219 16.7282 5.50887 17.6949 6.48984C19.2695 8.08828 21.0923 9.93837 25.0732 9.93837C29.3564 9.93837 32.0333 7.79679 33.1041 3.51364C31.498 5.65521 29.6241 6.45831 27.4825 5.92291C26.2606 5.61774 25.3873 4.73077 24.4206 3.7498C22.846 2.15135 21.0233 0.30127 17.0423 0.30127ZM9.01139 9.93837C4.72823 9.93837 2.05126 12.0799 0.980469 16.3631C2.58665 14.2215 4.46053 13.4184 6.60211 13.9538C7.824 14.2596 8.69729 15.146 9.66397 16.1269C11.2386 17.7254 13.0613 19.5755 17.0423 19.5755C21.3255 19.5755 24.0024 17.4339 25.0732 13.1507C23.467 15.2923 21.5932 16.0954 19.4516 15.56C18.2297 15.2548 17.3564 14.3679 16.3897 13.3869C14.8151 11.7885 12.9923 9.93837 9.01139 9.93837Z" fill="black"/>
</g>
</svg>
