<svg width="117" height="29" viewBox="0 0 117 29" fill="none" xmlns="http://www.w3.org/2000/svg">
<g clip-path="url(#clip0_75_240)">
<path d="M58.3034 7.50046C53.7603 7.50046 50.4847 10.602 50.4847 15.2543C50.4847 19.9066 54.1718 23.0082 58.7149 23.0082C61.4597 23.0082 63.8794 21.8709 65.3773 19.954L62.2292 18.05C61.398 19.002 60.1346 19.5577 58.7149 19.5577C56.7438 19.5577 55.0689 18.4808 54.4475 16.7577H65.9781C66.0687 16.2752 66.1222 15.7755 66.1222 15.25C66.1222 10.602 62.8465 7.50046 58.3034 7.50046ZM54.4105 13.7466C54.9249 12.0278 56.3323 10.9466 58.2993 10.9466C60.2704 10.9466 61.6778 12.0278 62.1881 13.7466H54.4105ZM102.615 7.50046C98.072 7.50046 94.7964 10.602 94.7964 15.2543C94.7964 19.9066 98.4835 23.0082 103.027 23.0082C105.771 23.0082 108.191 21.8709 109.689 19.954L106.541 18.05C105.71 19.002 104.446 19.5577 103.027 19.5577C101.055 19.5577 99.3806 18.4808 98.7592 16.7577H110.29C110.38 16.2752 110.434 15.7755 110.434 15.25C110.434 10.602 107.158 7.50046 102.615 7.50046ZM98.7263 13.7466C99.2407 12.0278 100.648 10.9466 102.615 10.9466C104.586 10.9466 105.994 12.0278 106.504 13.7466H98.7263ZM82.665 15.2543C82.665 17.8389 84.2781 19.562 86.7801 19.562C88.4755 19.562 89.7471 18.7565 90.4014 17.4426L93.5618 19.3509C92.2532 21.634 89.8006 23.0082 86.7801 23.0082C82.2329 23.0082 78.9613 19.9066 78.9613 15.2543C78.9613 10.602 82.237 7.50046 86.7801 7.50046C89.8006 7.50046 92.2491 8.87461 93.5618 11.1577L90.4014 13.066C89.7471 11.7522 88.4755 10.9466 86.7801 10.9466C84.2822 10.9466 82.665 12.6697 82.665 15.2543ZM116.607 2.762V22.5774H112.903V2.762H116.607ZM15.4691 0.608154L30.6745 28.1774H0.263672L15.4691 0.608154ZM53.4846 2.762L42.0816 23.4389L30.6786 2.762H34.9542L42.0816 15.6851L49.209 2.762H53.4846ZM77.7268 7.93123V12.1054C77.3153 11.9805 76.8791 11.8943 76.41 11.8943C74.0191 11.8943 72.2948 13.6174 72.2948 16.202V22.5774H68.5912V7.93123H72.2948V11.8943C72.2948 9.706 74.7269 7.93123 77.7268 7.93123Z" fill="#181818"/>
</g>
<defs>
<clipPath id="clip0_75_240">
<rect width="116.87" height="28" fill="white" transform="translate(0 0.5)"/>
</clipPath>
</defs>
</svg>
