<svg width="21" height="21" viewBox="0 0 21 21" fill="none" xmlns="http://www.w3.org/2000/svg">
<path fill-rule="evenodd" clip-rule="evenodd" d="M3.83337 10.4999C3.83337 10.0397 4.20647 9.66659 4.66671 9.66659H16.3334C16.7936 9.66659 17.1667 10.0397 17.1667 10.4999C17.1667 10.9602 16.7936 11.3333 16.3334 11.3333H4.66671C4.20647 11.3333 3.83337 10.9602 3.83337 10.4999Z" fill="white"/>
<path fill-rule="evenodd" clip-rule="evenodd" d="M9.9107 16.9227C9.58527 16.5972 9.58527 16.0696 9.9107 15.7442L15.1548 10.5001L9.9107 5.256C9.58527 4.93057 9.58527 4.40293 9.9107 4.07749C10.2361 3.75206 10.7638 3.75206 11.0892 4.07749L16.9225 9.91083C17.248 10.2363 17.248 10.7639 16.9225 11.0893L11.0892 16.9227C10.7638 17.2481 10.2361 17.2481 9.9107 16.9227Z" fill="white"/>
</svg>
