<svg width="193" height="39" viewBox="0 0 193 39" fill="none" xmlns="http://www.w3.org/2000/svg">
  <path
    d="M38.7107 0.269287H19.3553V19.6347H0V39H19.3553V19.6347L24.1942 19.6347C32.2114 19.6347 38.7107 26.1373 38.7107 34.1587V39H58.066V19.6347H53.2272C45.2099 19.6347 38.7107 13.132 38.7107 5.11063V0.269287Z"
    fill="#1C1917" />
  <path d="M98.8072 2.3956H104.66V7.20701H98.8072V2.3956Z" fill="#1C1917" />
  <path
    d="M131.014 15.4498C131.461 16.1212 131.685 17.0163 131.685 18.1352V29.25H137.538V17.4266C137.538 14.8157 136.941 12.8265 135.748 11.4589C134.555 10.0914 132.977 9.40757 131.014 9.40757C129.672 9.40757 128.442 9.73082 127.323 10.3773C126.23 11.0238 125.31 11.8817 124.565 12.9509C124.018 11.7822 123.248 10.8995 122.254 10.3027C121.259 9.70596 120.129 9.40757 118.861 9.40757C117.594 9.40757 116.475 9.69352 115.506 10.2654C114.562 10.8373 113.766 11.6206 113.12 12.6152V9.85515H107.417V29.25H113.269V18.732C113.269 17.3396 113.58 16.2828 114.201 15.5617C114.823 14.8157 115.655 14.4428 116.699 14.4428C117.693 14.4428 118.414 14.7784 118.861 15.4498C119.333 16.1212 119.569 17.0163 119.569 18.1352V29.25H125.422V18.732C125.422 17.3396 125.733 16.2828 126.354 15.5617C126.975 14.8157 127.808 14.4428 128.852 14.4428C129.846 14.4428 130.567 14.7784 131.014 15.4498Z"
    fill="#1C1917" />
  <path fill-rule="evenodd" clip-rule="evenodd"
    d="M149.888 29.1381C150.882 28.7402 151.777 28.0937 152.572 27.1986V29.25H158.126V15.3379C158.126 13.473 157.381 12.0184 155.89 10.9741C154.423 9.92974 152.249 9.40757 149.366 9.40757C146.707 9.40757 144.545 9.99191 142.88 11.1606C141.214 12.3292 140.369 14.0076 140.345 16.1958H146.16C146.185 15.4249 146.483 14.8157 147.055 14.3682C147.651 13.9206 148.446 13.6968 149.441 13.6968C150.534 13.6968 151.304 13.9082 151.752 14.3309C152.199 14.7287 152.423 15.3006 152.423 16.0466V16.8298L147.129 17.725C144.346 18.1974 142.345 18.8936 141.127 19.8136C139.935 20.7088 139.338 22.0142 139.338 23.7299C139.338 25.6196 139.984 27.0867 141.277 28.131C142.594 29.1754 144.321 29.6975 146.458 29.6975C147.775 29.6975 148.919 29.511 149.888 29.1381ZM146.011 25.1099C145.539 24.7121 145.303 24.1775 145.303 23.5061C145.303 22.8347 145.539 22.3374 146.011 22.0142C146.483 21.691 147.254 21.4299 148.322 21.2309L152.423 20.4104V21.865C152.423 23.1331 152.013 24.0904 151.193 24.7369C150.372 25.3586 149.354 25.6694 148.136 25.6694C147.216 25.6694 146.508 25.4829 146.011 25.1099Z"
    fill="#1C1917" />
  <path fill-rule="evenodd" clip-rule="evenodd"
    d="M187.446 27.1986C186.65 28.0937 185.756 28.7402 184.761 29.1381C183.792 29.511 182.649 29.6975 181.332 29.6975C179.195 29.6975 177.467 29.1754 176.15 28.131C174.858 27.0867 174.212 25.6196 174.212 23.7299C174.212 22.0142 174.808 20.7088 176.001 19.8136C177.219 18.8936 179.219 18.1974 182.003 17.725L187.296 16.8298V16.0466C187.296 15.3006 187.073 14.7287 186.625 14.3309C186.178 13.9082 185.408 13.6968 184.314 13.6968C183.32 13.6968 182.525 13.9206 181.928 14.3682C181.357 14.8157 181.059 15.4249 181.034 16.1958H175.218C175.243 14.0076 176.088 12.3292 177.753 11.1606C179.418 9.99191 181.58 9.40757 184.24 9.40757C187.122 9.40757 189.297 9.92974 190.763 10.9741C192.254 12.0184 193 13.473 193 15.3379V29.25H187.446V27.1986ZM180.176 23.5061C180.176 24.1775 180.412 24.7121 180.885 25.1099C181.382 25.4829 182.09 25.6694 183.009 25.6694C184.227 25.6694 185.246 25.3586 186.066 24.7369C186.886 24.0904 187.296 23.1331 187.296 21.865V20.4104L183.196 21.2309C182.127 21.4299 181.357 21.691 180.885 22.0142C180.412 22.3374 180.176 22.8347 180.176 23.5061Z"
    fill="#1C1917" />
  <path
    d="M166.123 9.85515H160.42V29.25H166.273V20.5969C166.273 18.5579 166.707 17.1158 167.577 16.2703C168.447 15.4001 169.739 14.9649 171.454 14.9649H173.318V9.63136H171.715C169.081 9.63136 167.217 10.887 166.123 13.3984V9.85515Z"
    fill="#1C1917" />
  <path d="M104.66 9.85515H98.8072V29.25H104.66V9.85515Z" fill="#1C1917" />
  <path
    d="M90.2451 18.1352C90.2451 15.6736 89.1764 14.4428 87.0392 14.4428C85.9705 14.4428 85.0758 14.8157 84.3551 15.5617C83.6344 16.2828 83.274 17.3396 83.274 18.732V29.25H77.4213V9.85515H83.1249V12.466C83.8456 11.5211 84.7155 10.7752 85.7344 10.2281C86.7533 9.68109 87.909 9.40757 89.2013 9.40757C91.3386 9.40757 93.0161 10.0914 94.2339 11.4589C95.4765 12.8017 96.0978 14.7909 96.0978 17.4266V29.25H90.2451V18.1352Z"
    fill="#1C1917" />
</svg>